<svg id="Layer_1" data-name="Layer 1" xmlns="http://www.w3.org/2000/svg" viewBox="0 0 318.12 59" width="318" height="59"><defs><style>.cls-1{fill:#f19012}</style></defs><path class="cls-1" d="M301.36 0v16.46h-3.62V0zm3.28 3V0h13.49v3h-4.94v13.46h-3.62V3z"/><path d="M80.94 48.51l1.95 5.19H81.7l-.39-1.16h-1.95L79 53.7h-1.19l2-5.19zm.06 3.18l-.66-1.9-.73 1.9zm7.27-1.8a1.16 1.16 0 0 0-.57-.5 1.18 1.18 0 0 0-.4-.07 1.33 1.33 0 0 0-.66.15 1.23 1.23 0 0 0-.43.4 1.76 1.76 0 0 0-.24.57 2.84 2.84 0 0 0-.08.67 2.63 2.63 0 0 0 .08.63 1.72 1.72 0 0 0 .24.55 1.24 1.24 0 0 0 .43.39 1.33 1.33 0 0 0 .66.15 1 1 0 0 0 .82-.32 1.47 1.47 0 0 0 .36-.85h1.11a2.65 2.65 0 0 1-.22.88 2.11 2.11 0 0 1-.48.67 2 2 0 0 1-.7.42 2.55 2.55 0 0 1-.88.14 2.66 2.66 0 0 1-1.07-.21 2.3 2.3 0 0 1-.81-.57 2.54 2.54 0 0 1-.5-.86 3.14 3.14 0 0 1-.25-1 3.26 3.26 0 0 1 .16-1.13 2.6 2.6 0 0 1 .5-.87 2.3 2.3 0 0 1 .81-.58A2.79 2.79 0 0 1 88 48.5a2.2 2.2 0 0 1 .69.36 2 2 0 0 1 .49.58 2.1 2.1 0 0 1 .24.8H88.4a.94.94 0 0 0-.13-.35zm6.98 0a1.16 1.16 0 0 0-.25-.29 1.19 1.19 0 0 0-.75-.26 1.33 1.33 0 0 0-.66.15 1.24 1.24 0 0 0-.43.4 1.73 1.73 0 0 0-.24.57 2.84 2.84 0 0 0-.08.67 2.64 2.64 0 0 0 .08.63 1.7 1.7 0 0 0 .24.55 1.25 1.25 0 0 0 .43.39 1.33 1.33 0 0 0 .66.15 1 1 0 0 0 .82-.32 1.48 1.48 0 0 0 .36-.85h1.11a2.62 2.62 0 0 1-.22.88 2.11 2.11 0 0 1-.48.67 2 2 0 0 1-.7.42 2.56 2.56 0 0 1-.88.14 2.66 2.66 0 0 1-1.08-.21 2.3 2.3 0 0 1-.81-.57 2.53 2.53 0 0 1-.5-.86 3.13 3.13 0 0 1-.15-1A3.24 3.24 0 0 1 91.9 50a2.59 2.59 0 0 1 .5-.87 2.3 2.3 0 0 1 .81-.58 2.79 2.79 0 0 1 1.88-.09 2.19 2.19 0 0 1 .69.36 1.94 1.94 0 0 1 .49.58 2.09 2.09 0 0 1 .25.8h-1.11a1 1 0 0 0-.16-.31zm7.56-1.38v1h-2.75v1.11h2.52v.89h-2.52v1.27h2.75v1h-3.9v-5.27zm3.56 0v4.23h2.49v1h-3.63v-5.23zm8.63 0v1h-2.74v1.11h2.52v.89h-2.52v1.27h2.8v1h-3.94v-5.27zm5.26 0a1.67 1.67 0 0 1 .62.11 1.45 1.45 0 0 1 .48.31 1.35 1.35 0 0 1 .3.45 1.46 1.46 0 0 1 .1.55 1.56 1.56 0 0 1-.19.8 1.21 1.21 0 0 1-.62.51.88.88 0 0 1 .35.18 1 1 0 0 1 .22.28 1.31 1.31 0 0 1 .13.36 3.12 3.12 0 0 1 .05.39v.63a2.29 2.29 0 0 0 .06.33.77.77 0 0 0 .12.26h-1.14a2 2 0 0 1-.12-.58 3 3 0 0 0-.07-.66 1 1 0 0 0-.25-.59.85.85 0 0 0-.61-.19h-1.14v2h-1.14v-5.14zm-.4 2.35a.87.87 0 0 0 .59-.17.73.73 0 0 0 .19-.56.7.7 0 0 0-.19-.55.88.88 0 0 0-.59-.17h-1.26v1.46zm7.04-2.35l1.95 5.19h-1.19l-.39-1.16h-1.95l-.4 1.16h-1.15l2-5.19zm.07 3.18l-.66-1.9-.68 1.9zm2.85-2.22v-1h4.23v1h-1.55v4.23h-1.14v-4.23zm7.59-.96v5.19h-1.14v-5.19zm3.7 0l2.17 3.49v-3.49h1.07v5.19h-1.14l-2.1-3.48v3.48H140v-5.19zm8.98 5.15a1.9 1.9 0 0 1-.75.16 2.66 2.66 0 0 1-1.07-.21 2.3 2.3 0 0 1-.81-.57 2.54 2.54 0 0 1-.5-.86 3.14 3.14 0 0 1-.17-1.06A3.26 3.26 0 0 1 147 50a2.6 2.6 0 0 1 .5-.87 2.3 2.3 0 0 1 .81-.58 2.63 2.63 0 0 1 1.07-.21 2.54 2.54 0 0 1 .78.12 2.2 2.2 0 0 1 .68.35 1.9 1.9 0 0 1 .74 1.36h-1.09a1.1 1.1 0 0 0-.39-.66 1.14 1.14 0 0 0-.71-.22 1.33 1.33 0 0 0-.66.15 1.23 1.23 0 0 0-.43.4 1.76 1.76 0 0 0-.24.57 2.84 2.84 0 0 0-.08.67 2.64 2.64 0 0 0 .08.63 1.72 1.72 0 0 0 .24.55 1.24 1.24 0 0 0 .43.39 1.33 1.33 0 0 0 .66.15 1.12 1.12 0 0 0 1.24-1.12h-1.15v-.78h2.19v2.81h-.73l-.12-.58a1.71 1.71 0 0 1-.73.53zm10.11-5.15a3.23 3.23 0 0 1 .68.07 1.47 1.47 0 0 1 .52.21 1 1 0 0 1 .34.39 1.4 1.4 0 0 1 .12.61 1.14 1.14 0 0 1-.18.66 1.3 1.3 0 0 1-.52.43 1.25 1.25 0 0 1 .72.48 1.58 1.58 0 0 1 .08 1.51 1.33 1.33 0 0 1-.41.47 1.81 1.81 0 0 1-.59.27 2.64 2.64 0 0 1-.68.09h-2.52v-5.19zm-.14 2.11a.82.82 0 0 0 .5-.14.54.54 0 0 0 .2-.47.6.6 0 0 0-.07-.3.48.48 0 0 0-.17-.18.74.74 0 0 0-.26-.13h-1.36v1.2zm.07 2.21a1.52 1.52 0 0 0 .32 0 .8.8 0 0 0 .27-.11.55.55 0 0 0 .18-.21.72.72 0 0 0 .07-.33.68.68 0 0 0-.22-.57 1 1 0 0 0-.59-.17h-1.24v1.39zm8.19.48a2.86 2.86 0 0 1-3.27 0 2 2 0 0 1-.57-1.57v-3.23h1.14v3.24a2.35 2.35 0 0 0 0 .41.81.81 0 0 0 .47.61 1.31 1.31 0 0 0 .55.1 1.07 1.07 0 0 0 .85-.27 1.3 1.3 0 0 0 .23-.86v-3.23h1.14v3.24a2 2 0 0 1-.54 1.56zm4.03-.9a.82.82 0 0 0 .25.29 1.09 1.09 0 0 0 .36.17 1.76 1.76 0 0 0 .43.05h.33a1.15 1.15 0 0 0 .33-.1.71.71 0 0 0 .25-.2.5.5 0 0 0 .1-.32.45.45 0 0 0-.13-.34 1 1 0 0 0-.35-.22 3.49 3.49 0 0 0-.49-.15l-.58-.18a4.91 4.91 0 0 1-.56-.18 1.94 1.94 0 0 1-.49-.27 1.23 1.23 0 0 1-.48-1 1.36 1.36 0 0 1 .17-.7 1.54 1.54 0 0 1 .44-.49 2 2 0 0 1 .62-.29 2.68 2.68 0 0 1 .7-.09 3.33 3.33 0 0 1 .79.09 2 2 0 0 1 .67.29 1.48 1.48 0 0 1 .46.52 1.59 1.59 0 0 1 .17.77h-1.11a.93.93 0 0 0-.1-.38.64.64 0 0 0-.22-.24.94.94 0 0 0-.31-.12 2 2 0 0 0-.39 0h-.28a.76.76 0 0 0-.25.1.65.65 0 0 0-.18.18.49.49 0 0 0-.07.27.47.47 0 0 0 .06.25.51.51 0 0 0 .23.17 2.89 2.89 0 0 0 .47.16l.79.2.4.1a2 2 0 0 1 .51.24 1.56 1.56 0 0 1 .44.44 1.27 1.27 0 0 1 .18.72 1.58 1.58 0 0 1-.14.67 1.44 1.44 0 0 1-.41.52 2 2 0 0 1-.68.34 3.18 3.18 0 0 1-.94.12 3.28 3.28 0 0 1-.84-.1 2.1 2.1 0 0 1-.72-.33 1.63 1.63 0 0 1-.49-.57 1.71 1.71 0 0 1-.17-.83h1.11a1 1 0 0 0 .12.44zm6.58-3.9v5.19h-1.14v-5.19zm3.73 0l2.17 3.49v-3.49h1.07v5.19h-1.14l-2.16-3.48v3.48h-1.07v-5.19zm9.75 0v1h-2.74v1.11h2.52v.89h-2.52v1.27h2.84v1h-4v-5.27zm3.31 3.9a.82.82 0 0 0 .25.29 1.08 1.08 0 0 0 .36.17 1.76 1.76 0 0 0 .43.05h.32a1.14 1.14 0 0 0 .33-.1.72.72 0 0 0 .25-.2.5.5 0 0 0 .1-.32.45.45 0 0 0-.13-.34 1.07 1.07 0 0 0-.35-.22 3.53 3.53 0 0 0-.49-.15l-.55-.18a5 5 0 0 1-.56-.18 1.94 1.94 0 0 1-.49-.27 1.22 1.22 0 0 1-.48-1 1.36 1.36 0 0 1 .17-.7 1.56 1.56 0 0 1 .44-.49 2 2 0 0 1 .62-.29 2.68 2.68 0 0 1 .7-.09 3.34 3.34 0 0 1 .79.09 2 2 0 0 1 .67.29 1.49 1.49 0 0 1 .46.52 1.59 1.59 0 0 1 .17.77h-1.11a.93.93 0 0 0-.1-.38.64.64 0 0 0-.22-.24 1 1 0 0 0-.31-.12 2 2 0 0 0-.39 0h-.27a.75.75 0 0 0-.25.1.65.65 0 0 0-.18.18.49.49 0 0 0-.07.27.46.46 0 0 0 .06.25.51.51 0 0 0 .23.17 2.92 2.92 0 0 0 .44.12l.79.2.4.1a2 2 0 0 1 .51.24 1.57 1.57 0 0 1 .44.44 1.28 1.28 0 0 1 .18.72 1.59 1.59 0 0 1-.14.67 1.45 1.45 0 0 1-.41.52 2 2 0 0 1-.68.34 3.18 3.18 0 0 1-.94.12 3.28 3.28 0 0 1-.84-.1 2.1 2.1 0 0 1-.72-.33 1.63 1.63 0 0 1-.49-.57 1.71 1.71 0 0 1-.17-.83h1.11a1 1 0 0 0 .12.48zm6.28 0a.82.82 0 0 0 .25.29 1.09 1.09 0 0 0 .36.17 1.76 1.76 0 0 0 .43.05h.33a1.15 1.15 0 0 0 .33-.1.71.71 0 0 0 .25-.2.5.5 0 0 0 .1-.32.45.45 0 0 0-.05-.3 1 1 0 0 0-.35-.22 3.48 3.48 0 0 0-.49-.15l-.53-.18a4.91 4.91 0 0 1-.56-.18 1.94 1.94 0 0 1-.49-.27 1.23 1.23 0 0 1-.48-1 1.36 1.36 0 0 1 .17-.7 1.54 1.54 0 0 1 .44-.49 2 2 0 0 1 .62-.29 2.68 2.68 0 0 1 .7-.09 3.33 3.33 0 0 1 .79.09 2 2 0 0 1 .67.29 1.48 1.48 0 0 1 .46.52 1.59 1.59 0 0 1 .17.77H204a.93.93 0 0 0-.1-.38.65.65 0 0 0-.26-.27.94.94 0 0 0-.31-.12 2 2 0 0 0-.39 0h-.28a.76.76 0 0 0-.25.1.63.63 0 0 0-.18.18.49.49 0 0 0-.07.27.47.47 0 0 0 .06.25.51.51 0 0 0 .23.17 2.89 2.89 0 0 0 .47.16l.79.2.4.1a2 2 0 0 1 .51.24 1.56 1.56 0 0 1 .44.44 1.27 1.27 0 0 1 .18.72 1.58 1.58 0 0 1-.14.67 1.44 1.44 0 0 1-.41.52 2 2 0 0 1-.68.34 3.18 3.18 0 0 1-.94.12 3.28 3.28 0 0 1-.84-.1 2.1 2.1 0 0 1-.72-.33 1.63 1.63 0 0 1-.49-.57 1.72 1.72 0 0 1-.17-.83h1.11a1 1 0 0 0 .04.43zm11.44-3.9a2.16 2.16 0 0 1 .83.14 1.54 1.54 0 0 1 .55.37 1.44 1.44 0 0 1 .31.53 2 2 0 0 1 0 1.23 1.44 1.44 0 0 1-.31.53 1.55 1.55 0 0 1-.55.37 2.16 2.16 0 0 1-.83.14h-1.2v1.88h-1.14v-5.19zm-.31 2.49a2.39 2.39 0 0 0 .38 0 .88.88 0 0 0 .32-.11.61.61 0 0 0 .22-.23 1 1 0 0 0 0-.8.61.61 0 0 0-.22-.23.89.89 0 0 0-.32-.11 2.39 2.39 0 0 0-.38 0h-.89V51zm8.32-2.49v1h-2.73v1.11h2.52v.89h-2.52v1.27h2.8v1h-3.94v-5.27zm5.23 0a1.66 1.66 0 0 1 .62.11 1.44 1.44 0 0 1 .48.31 1.35 1.35 0 0 1 .3.45 1.47 1.47 0 0 1 .1.55 1.56 1.56 0 0 1-.19.8 1.21 1.21 0 0 1-.62.51.89.89 0 0 1 .35.18 1 1 0 0 1 .22.28 1.34 1.34 0 0 1 .13.36 3.14 3.14 0 0 1 .05.39v.63a2.21 2.21 0 0 0 .06.33.77.77 0 0 0 .12.26h-1.14a2 2 0 0 1-.12-.58 2.34 2.34 0 0 0-.06-.66 1 1 0 0 0-.25-.59.86.86 0 0 0-.61-.19H225v2h-1.14v-5.14zm-.4 2.35a.86.86 0 0 0 .58-.17.73.73 0 0 0 .2-.56.7.7 0 0 0-.2-.55.88.88 0 0 0-.58-.17H225v1.46zm8.1-2.35v1h-2.56v1.2H234v.89h-2.18v2.15h-1.14v-5.24zm2.2 1.49a2.59 2.59 0 0 1 .5-.87 2.3 2.3 0 0 1 .81-.58 2.84 2.84 0 0 1 2.15 0 2.3 2.3 0 0 1 .8.58 2.6 2.6 0 0 1 .5.87 3.26 3.26 0 0 1 .17 1.08 3.14 3.14 0 0 1-.17 1.06 2.54 2.54 0 0 1-.5.86 2.31 2.31 0 0 1-.8.57 2.89 2.89 0 0 1-2.15 0 2.3 2.3 0 0 1-.81-.57 2.53 2.53 0 0 1-.5-.86 3.14 3.14 0 0 1-.17-1.06 3.26 3.26 0 0 1 .17-1.08zm1 1.71a1.72 1.72 0 0 0 .24.55 1.25 1.25 0 0 0 .43.39 1.51 1.51 0 0 0 1.31 0 1.23 1.23 0 0 0 .43-.39 1.7 1.7 0 0 0 .24-.55 2.64 2.64 0 0 0 .08-.63 2.84 2.84 0 0 0-.08-.67 1.73 1.73 0 0 0-.24-.57 1.23 1.23 0 0 0-.43-.4 1.51 1.51 0 0 0-1.31 0 1.24 1.24 0 0 0-.43.4 1.76 1.76 0 0 0-.24.57 2.88 2.88 0 0 0-.08.67 2.67 2.67 0 0 0 .12.65zm9.12-3.2a1.66 1.66 0 0 1 .62.11 1.44 1.44 0 0 1 .48.31 1.34 1.34 0 0 1 .3.45 1.47 1.47 0 0 1 .1.55 1.56 1.56 0 0 1-.19.8 1.21 1.21 0 0 1-.62.51.89.89 0 0 1 .35.18 1 1 0 0 1 .22.28 1.34 1.34 0 0 1 .13.36 3.12 3.12 0 0 1 .05.39v.63a2.21 2.21 0 0 0 .06.33.77.77 0 0 0 .12.26h-1.12a2 2 0 0 1-.12-.58 3.44 3.44 0 0 0-.06-.66 1 1 0 0 0-.25-.59.86.86 0 0 0-.61-.19H245v2h-1.1v-5.14zm-.4 2.35a.86.86 0 0 0 .58-.17.73.73 0 0 0 .2-.56.7.7 0 0 0-.2-.55.88.88 0 0 0-.58-.17h-1.25v1.46zm6.06-2.35l1.22 3.57 1.15-3.57h1.61v5.19h-1.07V50L254 53.7h-.88l-1.27-3.65v3.65h-1.07v-5.19zm9.18 0l1.95 5.19h-1.19l-.39-1.16H260l-.4 1.16h-1.2l2-5.19zm.07 3.18l-.66-1.9-.68 1.9zm5.06-3.18l2.17 3.49v-3.49h1.07v5.19h-1.14l-2.16-3.48v3.48h-1.07v-5.19zm9.19 1.38a1.16 1.16 0 0 0-.25-.29 1.19 1.19 0 0 0-.75-.26 1.33 1.33 0 0 0-.66.15 1.24 1.24 0 0 0-.43.4 1.76 1.76 0 0 0-.24.57 2.87 2.87 0 0 0-.08.67 2.66 2.66 0 0 0 .08.63 1.72 1.72 0 0 0 .24.55 1.25 1.25 0 0 0 .43.39 1.33 1.33 0 0 0 .66.15 1 1 0 0 0 .82-.32 1.48 1.48 0 0 0 .36-.85h1.13a2.65 2.65 0 0 1-.22.88 2.11 2.11 0 0 1-.48.67 2 2 0 0 1-.7.42 2.55 2.55 0 0 1-.88.14 2.66 2.66 0 0 1-1.07-.21A2.3 2.3 0 0 1 273 53a2.53 2.53 0 0 1-.5-.86 3.14 3.14 0 0 1-.17-1.06 3.26 3.26 0 0 1 .17-1.08 2.59 2.59 0 0 1 .5-.87 2.29 2.29 0 0 1 .81-.58 2.79 2.79 0 0 1 1.88-.09 2.2 2.2 0 0 1 .69.36 1.94 1.94 0 0 1 .49.58 2.09 2.09 0 0 1 .25.8H276a.94.94 0 0 0-.14-.31zm7.54-1.38v1h-2.74v1.11h2.56v.89h-2.52v1.27h2.8v1h-3.94v-5.27z" fill="#b5b5b4"/><path d="M94.15 18.89a7.14 7.14 0 0 0-1.58-1.75 7.4 7.4 0 0 0-4.65-1.62 8.26 8.26 0 0 0-4 .93 7.66 7.66 0 0 0-2.71 2.48 10.89 10.89 0 0 0-1.55 3.51 17.65 17.65 0 0 0-.47 4.1 16.41 16.41 0 0 0 .47 4 10.65 10.65 0 0 0 1.51 3.45 7.73 7.73 0 0 0 2.71 2.46 8.26 8.26 0 0 0 4 .93 6.55 6.55 0 0 0 5-2 9.18 9.18 0 0 0 2.24-5.23H102a16.39 16.39 0 0 1-1.4 5.46 13.1 13.1 0 0 1-3 4.15 12.64 12.64 0 0 1-4.33 2.62 15.86 15.86 0 0 1-5.46.91A16.52 16.52 0 0 1 81.16 42a14.25 14.25 0 0 1-5-3.54A15.67 15.67 0 0 1 73 33.08a19.45 19.45 0 0 1-1-6.56 20.16 20.16 0 0 1 1-6.71 16.13 16.13 0 0 1 3.11-5.39 14.23 14.23 0 0 1 5-3.61 17.27 17.27 0 0 1 11.68-.54 13.65 13.65 0 0 1 4.24 2.24 12.09 12.09 0 0 1 3.22 3.62 13 13 0 0 1 1.52 5H95a5.81 5.81 0 0 0-.85-2.24zm28.3 8.45l-3.12-9.07h-.09L115 30.09h4.9l1.86 5.28h-8.67l-2.53 7.18h-7.13l12.23-32.25H123l12.09 32.25h-7.36l-1.93-5.68zm50.22 0l-3.12-9.07h-.09l-4.16 11.78h4.95l1.86 5.28h-8.67l-2.53 7.18h-7.13L166 10.26h7.27l12.09 32.25H178l-1.93-5.68zm-41.53-11.09v-6h26.39v6h-9.66V42.5h-7.06V16.25zm63.92-5.96v26.25h15.7v6H188V10.25zm50.17 24.27a5.1 5.1 0 0 0 1.55 1.82 6.71 6.71 0 0 0 2.28 1 10.73 10.73 0 0 0 2.71.34 14 14 0 0 0 2-.16 7.05 7.05 0 0 0 2-.6 4.42 4.42 0 0 0 1.58-1.24 3.11 3.11 0 0 0 .63-2 2.83 2.83 0 0 0-.84-2.12 6.63 6.63 0 0 0-2.14-1.36 21.81 21.81 0 0 0-3-.95q-1.71-.4-3.48-.91a30.63 30.63 0 0 1-3.52-1.11 12.09 12.09 0 0 1-3-1.69 8 8 0 0 1-2.23-2.58 7.87 7.87 0 0 1-.84-3.77 8.44 8.44 0 0 1 .95-4.26 9.59 9.59 0 0 1 2.77-3 12.09 12.09 0 0 1 3.93-1.85 16.53 16.53 0 0 1 4.33-.58 20.51 20.51 0 0 1 4.85.56 12.09 12.09 0 0 1 4.13 1.82 9.25 9.25 0 0 1 2.86 3.23 9.9 9.9 0 0 1 1.06 4.76H257a5.7 5.7 0 0 0-.6-2.39A4 4 0 0 0 255 16a5.84 5.84 0 0 0-2-.77 12.09 12.09 0 0 0-2.42-.22 8.33 8.33 0 0 0-1.71.18 4.6 4.6 0 0 0-1.55.63A3.9 3.9 0 0 0 246.2 17a3 3 0 0 0-.45 1.71 2.89 2.89 0 0 0 .36 1.53 3.22 3.22 0 0 0 1.42 1.08 18.07 18.07 0 0 0 2.93 1l4.9 1.26q.9.18 2.5.66a12 12 0 0 1 3.14 1.5 9.64 9.64 0 0 1 2.73 2.77 7.9 7.9 0 0 1 1.2 4.49 9.85 9.85 0 0 1-.86 4.1 8.91 8.91 0 0 1-2.58 3.26 12.26 12.26 0 0 1-4.19 2.15 19.85 19.85 0 0 1-5.8.77 20.36 20.36 0 0 1-5.17-.66 13 13 0 0 1-4.42-2 10.13 10.13 0 0 1-3-3.57 10.63 10.63 0 0 1-1.08-5.14h6.85a5.91 5.91 0 0 0 .55 2.65zm21.34-18.31v-6H293v6h-9.7V42.5h-7.06V16.25zm-60.32-5.96l11.82 19.67V42.5h7.09V30.43l-11.42-20.14h-7.49zm30.86 0h-7.89l-6.07 10.3 3.76 6.63 10.2-16.93zM27.94 59a27.93 27.93 0 1 1 27.92-27.94A28 28 0 0 1 27.94 59zm0-53.67a25.75 25.75 0 1 0 25.74 25.76A25.77 25.77 0 0 0 27.94 5.33z" fill="#58585a"/><circle class="cls-1" cx="34.28" cy="21.05" r="3.93"/><circle class="cls-1" cx="19.1" cy="31.11" r="3.93"/><circle class="cls-1" cx="34.28" cy="41.1" r="3.93"/><path class="cls-1" d="M35.37 43.06L16.14 31.11l19.23-12zM20.25 31.11l12.91 8.06V23.09z"/></svg>